# xmcd
#
# Track frame offsets: 
#        150
#        2575
#        19659
#        39787
#        54795
#        71040
#        90300
#        105676
#        124222
#        133439
#        149046
#        167424
#
# Disc length: 2473 seconds
#
# Revision: 0
# Processed by: cddbd v1.5.2PL0 Copyright (c) Steve Scherf et al.
# Submitted via: ExactAudioCopy v0.95b3
#
DISCID=9a09a70c
DTITLE=Tijuana Mon Amour Broadcasting Inc. - Cold Jubilee (Of The Snow
DTITLE=queen)
DYEAR=2007
DGENRE=Indie
TTITLE0=Exit
TTITLE1=Living In The Future
TTITLE2=88
TTITLE3=On Top Of The Mountain
TTITLE4=Next Room
TTITLE5=Follow Me
TTITLE6=Day After
TTITLE7=Cold Jubilee
TTITLE8=World Without You
TTITLE9=Dead Bill
TTITLE10=Time Now
TTITLE11=Of The Snowquenn
EXTD=
EXTT0=
EXTT1=
EXTT2=
EXTT3=
EXTT4=
EXTT5=
EXTT6=
EXTT7=
EXTT8=
EXTT9=
EXTT10=
EXTT11=
PLAYORDER=
